# xmcd
#
# Track frame offsets: 
#        150
#        6494
#        37703
#        45316
#        66552
#        73782
#        97431
#        111383
#        132093
#        139782
#        168839
#        186704
#        200354
#        207792
#        230680
#        243575
#        264257
#        271071
#        299499
#        309021
#
# Disc length: 4396 seconds
#
# Revision: 0
# Processed by: cddbd v1.5.2PL0 Copyright (c) Steve Scherf et al.
# Submitted via: ExactAudioCopy v0.99pb4
#
DISCID=2f112a14
DTITLE=Hank Williams - Mother's Best [CD8]
DYEAR=1951
DGENRE=Country
TTITLE0=Mother's Best 9-B1
TTITLE1=Pictures From Lifes' Other Side
TTITLE2=Sally Goodin'
TTITLE3=Sing, Sing, Sing
TTITLE4=Mother's Best 9-B2
TTITLE5=Just Waitin'
TTITLE6=Paradise Island
TTITLE7=When The Fire Comes Down From Heaven
TTITLE8=Mother's Best 10-A1
TTITLE9=My Sweet Love Ain't Around
TTITLE10=I Can't Tell My Heart That (Jimmie Skinner)
TTITLE11=Where The Soul Of Man Never Dies
TTITLE12=Mother's Best 10-A2
TTITLE13=I Can't Help It
TTITLE14=Panhandle Rag
TTITLE15=Drifting Too Far From The Shore
TTITLE16=Mother's Best 10-B1
TTITLE17=Just When I Needed You
TTITLE18=Steel Guitar Stomp
TTITLE19=I'll Fly Away
EXTD=
EXTT0=
EXTT1=
EXTT2=
EXTT3=
EXTT4=
EXTT5=
EXTT6=
EXTT7=
EXTT8=
EXTT9=
EXTT10=
EXTT11=
EXTT12=
EXTT13=
EXTT14=
EXTT15=
EXTT16=
EXTT17=
EXTT18=
EXTT19=
PLAYORDER=
